<?xml version="1.0" standalone="no"?>
<!DOCTYPE svg PUBLIC "-//W3C//DTD SVG 20010904//EN"
 "http://www.w3.org/TR/2001/REC-SVG-20010904/DTD/svg10.dtd">
<svg version="1.0" xmlns="http://www.w3.org/2000/svg"
 viewBox="0 0 512 512"
 preserveAspectRatio="xMidYMid meet">

<g transform="translate(0.000000,312.000000) scale(0.100000,-0.100000)"
fill="#000000" stroke="none">
<path xmlns="http://www.w3.org/2000/svg" d="M816 3068 c-42 -148 -816 -3047 -816 -3057 0 -7 37 -11 115 -11 l114 0 15 53 c42 145 816 3047 816 3056 0 7 -38 11 -115 11 l-114 0 -15 -52zM1730 2185 c-524 -536 -581 -597 -569 -613 8 -9 274 -284 592 -609 l579 -593 160 0 c91 0 158 4 156 9 -1 5 -265 278 -585 607 -321 329 -583 601 -583 606 0 5 255 270 568 590 312 319 569 584 570 589 2 5 -66 9 -151 9 l-155 0 -582 -595zM3111 2723 c104 -109 843 -868 973 -1000 l129 -131 -569 -582 c-313 -320 -579 -595 -592 -611 l-23 -29 163 0 164 0 585 600 c321 331 584 607 584 615 0 9 -258 281 -574 605 l-575 590 -160 0 -160 0 55 -57z"/>
</g>
</svg>
